<mxfile host="65bd71144e">
    <diagram id="Rlf8xE68demIQxLl0rlF" name="Page-1">
        <mxGraphModel dx="990" dy="827" grid="1" gridSize="10" guides="1" tooltips="1" connect="1" arrows="1" fold="1" page="1" pageScale="1" pageWidth="850" pageHeight="1100" math="0" shadow="0">
            <root>
                <mxCell id="0"/>
                <mxCell id="1" parent="0"/>
                <mxCell id="2" value="" style="rounded=0;whiteSpace=wrap;html=1;opacity=50;" parent="1" vertex="1">
                    <mxGeometry x="40" y="140" width="755" height="360" as="geometry"/>
                </mxCell>
                <mxCell id="8" value="" style="rounded=0;whiteSpace=wrap;html=1;opacity=50;" parent="1" vertex="1">
                    <mxGeometry x="40" y="210" width="40" height="290" as="geometry"/>
                </mxCell>
                <mxCell id="10" value="" style="rounded=0;whiteSpace=wrap;html=1;opacity=50;" parent="1" vertex="1">
                    <mxGeometry x="160" y="140" width="40" height="290" as="geometry"/>
                </mxCell>
                <mxCell id="11" value="" style="rounded=0;whiteSpace=wrap;html=1;opacity=50;" parent="1" vertex="1">
                    <mxGeometry x="280" y="210" width="40" height="290" as="geometry"/>
                </mxCell>
                <mxCell id="12" value="" style="rounded=0;whiteSpace=wrap;html=1;opacity=50;" parent="1" vertex="1">
                    <mxGeometry x="400" y="140" width="40" height="290" as="geometry"/>
                </mxCell>
                <mxCell id="13" value="" style="rounded=0;whiteSpace=wrap;html=1;opacity=50;" parent="1" vertex="1">
                    <mxGeometry x="520" y="210" width="40" height="290" as="geometry"/>
                </mxCell>
                <mxCell id="14" value="" style="rounded=0;whiteSpace=wrap;html=1;opacity=50;" parent="1" vertex="1">
                    <mxGeometry x="640" y="140" width="40" height="290" as="geometry"/>
                </mxCell>
                <mxCell id="160" style="edgeStyle=none;html=1;" edge="1" parent="1" source="16" target="2">
                    <mxGeometry relative="1" as="geometry"/>
                </mxCell>
                <mxCell id="16" value="" style="rounded=0;whiteSpace=wrap;html=1;opacity=50;" parent="1" vertex="1">
                    <mxGeometry x="755" y="139.74" width="40" height="360" as="geometry"/>
                </mxCell>
                <mxCell id="23" value="" style="endArrow=classic;html=1;fillColor=#60a917;strokeColor=#2D7600;strokeWidth=3;" parent="1" edge="1">
                    <mxGeometry relative="1" as="geometry">
                        <mxPoint x="10" y="160" as="sourcePoint"/>
                        <mxPoint x="110" y="160" as="targetPoint"/>
                    </mxGeometry>
                </mxCell>
                <mxCell id="24" value="ENTER" style="edgeLabel;resizable=0;html=1;align=center;verticalAlign=middle;" parent="23" connectable="0" vertex="1">
                    <mxGeometry relative="1" as="geometry"/>
                </mxCell>
                <mxCell id="26" value="" style="endArrow=classic;html=1;fillColor=#a20025;strokeColor=#FF0000;strokeWidth=3;" parent="1" edge="1">
                    <mxGeometry relative="1" as="geometry">
                        <mxPoint x="110" y="184.5" as="sourcePoint"/>
                        <mxPoint x="10" y="184.5" as="targetPoint"/>
                    </mxGeometry>
                </mxCell>
                <mxCell id="27" value="EXIT" style="edgeLabel;resizable=0;html=1;align=center;verticalAlign=middle;" parent="26" connectable="0" vertex="1">
                    <mxGeometry relative="1" as="geometry">
                        <mxPoint as="offset"/>
                    </mxGeometry>
                </mxCell>
                <mxCell id="29" value="" style="html=1;whiteSpace=wrap;shape=isoCube2;backgroundOutline=1;isoAngle=15;rotation=-135;opacity=50;" parent="1" vertex="1">
                    <mxGeometry x="43.75" y="230" width="32.5" height="35.58" as="geometry"/>
                </mxCell>
                <mxCell id="31" value="" style="html=1;whiteSpace=wrap;shape=isoCube2;backgroundOutline=1;isoAngle=15;rotation=-135;opacity=50;" parent="1" vertex="1">
                    <mxGeometry x="43.75" y="280" width="32.5" height="35.58" as="geometry"/>
                </mxCell>
                <mxCell id="32" value="" style="html=1;whiteSpace=wrap;shape=isoCube2;backgroundOutline=1;isoAngle=15;rotation=-135;opacity=50;" parent="1" vertex="1">
                    <mxGeometry x="43.75" y="330" width="32.5" height="35.58" as="geometry"/>
                </mxCell>
                <mxCell id="33" value="" style="html=1;whiteSpace=wrap;shape=isoCube2;backgroundOutline=1;isoAngle=15;rotation=-135;opacity=50;" parent="1" vertex="1">
                    <mxGeometry x="43.75" y="380" width="32.5" height="35.58" as="geometry"/>
                </mxCell>
                <mxCell id="34" value="" style="html=1;whiteSpace=wrap;shape=isoCube2;backgroundOutline=1;isoAngle=15;rotation=-135;opacity=50;" parent="1" vertex="1">
                    <mxGeometry x="43.75" y="430" width="32.5" height="35.58" as="geometry"/>
                </mxCell>
                <mxCell id="35" value="" style="html=1;whiteSpace=wrap;shape=isoCube2;backgroundOutline=1;isoAngle=15;rotation=-135;opacity=50;" parent="1" vertex="1">
                    <mxGeometry x="163.75" y="167.20999999999998" width="32.5" height="35.58" as="geometry"/>
                </mxCell>
                <mxCell id="36" value="" style="html=1;whiteSpace=wrap;shape=isoCube2;backgroundOutline=1;isoAngle=15;rotation=-135;opacity=50;" parent="1" vertex="1">
                    <mxGeometry x="163.75" y="217.20999999999998" width="32.5" height="35.58" as="geometry"/>
                </mxCell>
                <mxCell id="37" value="" style="html=1;whiteSpace=wrap;shape=isoCube2;backgroundOutline=1;isoAngle=15;rotation=-135;opacity=50;" parent="1" vertex="1">
                    <mxGeometry x="163.75" y="267.21" width="32.5" height="35.58" as="geometry"/>
                </mxCell>
                <mxCell id="38" value="" style="html=1;whiteSpace=wrap;shape=isoCube2;backgroundOutline=1;isoAngle=15;rotation=-135;opacity=50;" parent="1" vertex="1">
                    <mxGeometry x="163.75" y="317.21" width="32.5" height="35.58" as="geometry"/>
                </mxCell>
                <mxCell id="39" value="" style="html=1;whiteSpace=wrap;shape=isoCube2;backgroundOutline=1;isoAngle=15;rotation=-135;opacity=50;" parent="1" vertex="1">
                    <mxGeometry x="163.75" y="367.21" width="32.5" height="35.58" as="geometry"/>
                </mxCell>
                <mxCell id="40" value="" style="html=1;whiteSpace=wrap;shape=isoCube2;backgroundOutline=1;isoAngle=15;rotation=-135;opacity=50;" parent="1" vertex="1">
                    <mxGeometry x="283.75" y="240" width="32.5" height="35.58" as="geometry"/>
                </mxCell>
                <mxCell id="41" value="" style="html=1;whiteSpace=wrap;shape=isoCube2;backgroundOutline=1;isoAngle=15;rotation=-135;opacity=50;" parent="1" vertex="1">
                    <mxGeometry x="283.75" y="290" width="32.5" height="35.58" as="geometry"/>
                </mxCell>
                <mxCell id="42" value="" style="html=1;whiteSpace=wrap;shape=isoCube2;backgroundOutline=1;isoAngle=15;rotation=-135;opacity=50;" parent="1" vertex="1">
                    <mxGeometry x="283.75" y="340" width="32.5" height="35.58" as="geometry"/>
                </mxCell>
                <mxCell id="43" value="" style="html=1;whiteSpace=wrap;shape=isoCube2;backgroundOutline=1;isoAngle=15;rotation=-135;opacity=50;" parent="1" vertex="1">
                    <mxGeometry x="283.75" y="390" width="32.5" height="35.58" as="geometry"/>
                </mxCell>
                <mxCell id="44" value="" style="html=1;whiteSpace=wrap;shape=isoCube2;backgroundOutline=1;isoAngle=15;rotation=-135;opacity=50;" parent="1" vertex="1">
                    <mxGeometry x="283.75" y="440" width="32.5" height="35.58" as="geometry"/>
                </mxCell>
                <mxCell id="45" value="" style="html=1;whiteSpace=wrap;shape=isoCube2;backgroundOutline=1;isoAngle=15;rotation=-135;opacity=50;" parent="1" vertex="1">
                    <mxGeometry x="403.75" y="167.20999999999998" width="32.5" height="35.58" as="geometry"/>
                </mxCell>
                <mxCell id="46" value="" style="html=1;whiteSpace=wrap;shape=isoCube2;backgroundOutline=1;isoAngle=15;rotation=-135;opacity=50;" parent="1" vertex="1">
                    <mxGeometry x="403.75" y="217.20999999999998" width="32.5" height="35.58" as="geometry"/>
                </mxCell>
                <mxCell id="47" value="" style="html=1;whiteSpace=wrap;shape=isoCube2;backgroundOutline=1;isoAngle=15;rotation=-135;opacity=50;" parent="1" vertex="1">
                    <mxGeometry x="403.75" y="267.21" width="32.5" height="35.58" as="geometry"/>
                </mxCell>
                <mxCell id="48" value="" style="html=1;whiteSpace=wrap;shape=isoCube2;backgroundOutline=1;isoAngle=15;rotation=-135;opacity=50;" parent="1" vertex="1">
                    <mxGeometry x="403.75" y="317.21" width="32.5" height="35.58" as="geometry"/>
                </mxCell>
                <mxCell id="49" value="" style="html=1;whiteSpace=wrap;shape=isoCube2;backgroundOutline=1;isoAngle=15;rotation=-135;opacity=50;" parent="1" vertex="1">
                    <mxGeometry x="403.75" y="367.21" width="32.5" height="35.58" as="geometry"/>
                </mxCell>
                <mxCell id="50" value="" style="html=1;whiteSpace=wrap;shape=isoCube2;backgroundOutline=1;isoAngle=15;rotation=-135;opacity=50;" parent="1" vertex="1">
                    <mxGeometry x="523.75" y="240" width="32.5" height="35.58" as="geometry"/>
                </mxCell>
                <mxCell id="51" value="" style="html=1;whiteSpace=wrap;shape=isoCube2;backgroundOutline=1;isoAngle=15;rotation=-135;opacity=50;" parent="1" vertex="1">
                    <mxGeometry x="523.75" y="290" width="32.5" height="35.58" as="geometry"/>
                </mxCell>
                <mxCell id="52" value="" style="html=1;whiteSpace=wrap;shape=isoCube2;backgroundOutline=1;isoAngle=15;rotation=-135;opacity=50;" parent="1" vertex="1">
                    <mxGeometry x="523.75" y="340" width="32.5" height="35.58" as="geometry"/>
                </mxCell>
                <mxCell id="53" value="" style="html=1;whiteSpace=wrap;shape=isoCube2;backgroundOutline=1;isoAngle=15;rotation=-135;opacity=50;" parent="1" vertex="1">
                    <mxGeometry x="523.75" y="390" width="32.5" height="35.58" as="geometry"/>
                </mxCell>
                <mxCell id="54" value="" style="html=1;whiteSpace=wrap;shape=isoCube2;backgroundOutline=1;isoAngle=15;rotation=-135;opacity=50;" parent="1" vertex="1">
                    <mxGeometry x="523.75" y="440" width="32.5" height="35.58" as="geometry"/>
                </mxCell>
                <mxCell id="55" value="" style="html=1;whiteSpace=wrap;shape=isoCube2;backgroundOutline=1;isoAngle=15;rotation=-135;opacity=50;" parent="1" vertex="1">
                    <mxGeometry x="643.75" y="167.20999999999998" width="32.5" height="35.58" as="geometry"/>
                </mxCell>
                <mxCell id="56" value="" style="html=1;whiteSpace=wrap;shape=isoCube2;backgroundOutline=1;isoAngle=15;rotation=-135;opacity=50;" parent="1" vertex="1">
                    <mxGeometry x="643.75" y="217.20999999999998" width="32.5" height="35.58" as="geometry"/>
                </mxCell>
                <mxCell id="57" value="" style="html=1;whiteSpace=wrap;shape=isoCube2;backgroundOutline=1;isoAngle=15;rotation=-135;opacity=50;" parent="1" vertex="1">
                    <mxGeometry x="643.75" y="267.21" width="32.5" height="35.58" as="geometry"/>
                </mxCell>
                <mxCell id="58" value="" style="html=1;whiteSpace=wrap;shape=isoCube2;backgroundOutline=1;isoAngle=15;rotation=-135;opacity=50;" parent="1" vertex="1">
                    <mxGeometry x="643.75" y="317.21" width="32.5" height="35.58" as="geometry"/>
                </mxCell>
                <mxCell id="59" value="" style="html=1;whiteSpace=wrap;shape=isoCube2;backgroundOutline=1;isoAngle=15;rotation=-135;opacity=50;" parent="1" vertex="1">
                    <mxGeometry x="643.75" y="367.21" width="32.5" height="35.58" as="geometry"/>
                </mxCell>
                <mxCell id="60" value="" style="html=1;whiteSpace=wrap;shape=isoCube2;backgroundOutline=1;isoAngle=15;rotation=-135;opacity=50;" parent="1" vertex="1">
                    <mxGeometry x="758.75" y="251.95000000000002" width="32.5" height="35.58" as="geometry"/>
                </mxCell>
                <mxCell id="61" value="" style="html=1;whiteSpace=wrap;shape=isoCube2;backgroundOutline=1;isoAngle=15;rotation=-135;opacity=50;" parent="1" vertex="1">
                    <mxGeometry x="758.75" y="301.95000000000005" width="32.5" height="35.58" as="geometry"/>
                </mxCell>
                <mxCell id="62" value="" style="html=1;whiteSpace=wrap;shape=isoCube2;backgroundOutline=1;isoAngle=15;rotation=-135;opacity=50;" parent="1" vertex="1">
                    <mxGeometry x="758.75" y="351.95000000000005" width="32.5" height="35.58" as="geometry"/>
                </mxCell>
                <mxCell id="63" value="" style="html=1;whiteSpace=wrap;shape=isoCube2;backgroundOutline=1;isoAngle=15;rotation=-135;opacity=50;" parent="1" vertex="1">
                    <mxGeometry x="758.75" y="401.95" width="32.5" height="35.58" as="geometry"/>
                </mxCell>
                <mxCell id="64" value="" style="html=1;whiteSpace=wrap;shape=isoCube2;backgroundOutline=1;isoAngle=15;rotation=-135;opacity=50;" parent="1" vertex="1">
                    <mxGeometry x="758.75" y="451.95" width="32.5" height="35.58" as="geometry"/>
                </mxCell>
                <mxCell id="72" value="" style="shape=actor;whiteSpace=wrap;html=1;" parent="1" vertex="1">
                    <mxGeometry x="110" y="220" width="20" height="32.79" as="geometry"/>
                </mxCell>
                <mxCell id="74" value="" style="image;html=1;image=img/lib/clip_art/finance/Shopping_Cart_128x128.png" parent="1" vertex="1">
                    <mxGeometry x="110" y="237.21000000000004" width="30" height="20" as="geometry"/>
                </mxCell>
                <UserObject label="&lt;font color=&quot;#ffffff&quot;&gt;Lettuce&lt;br&gt;&lt;/font&gt;" placeholders="1" name="Variable" id="78">
                    <mxCell style="text;html=1;strokeColor=none;fillColor=none;align=center;verticalAlign=middle;whiteSpace=wrap;overflow=hidden;strokeWidth=3;" parent="1" vertex="1">
                        <mxGeometry x="20" y="219.99999999999997" width="80" height="20" as="geometry"/>
                    </mxCell>
                </UserObject>
                <UserObject label="&lt;font color=&quot;#ffffff&quot;&gt;Lettuce&lt;br&gt;&lt;/font&gt;" placeholders="1" name="Variable" id="79">
                    <mxCell style="text;html=1;strokeColor=none;fillColor=none;align=center;verticalAlign=middle;whiteSpace=wrap;overflow=hidden;strokeWidth=3;" parent="1" vertex="1">
                        <mxGeometry x="140" y="310" width="80" height="20" as="geometry"/>
                    </mxCell>
                </UserObject>
                <UserObject label="&lt;font color=&quot;#ffffff&quot;&gt;Lettuce&lt;br&gt;&lt;/font&gt;" placeholders="1" name="Variable" id="80">
                    <mxCell style="text;html=1;strokeColor=none;fillColor=none;align=center;verticalAlign=middle;whiteSpace=wrap;overflow=hidden;strokeWidth=3;" parent="1" vertex="1">
                        <mxGeometry x="260" y="229.99999999999997" width="80" height="20" as="geometry"/>
                    </mxCell>
                </UserObject>
                <UserObject label="&lt;font color=&quot;#ffffff&quot;&gt;Lettuce&lt;br&gt;&lt;/font&gt;" placeholders="1" name="Variable" id="81">
                    <mxCell style="text;html=1;strokeColor=none;fillColor=none;align=center;verticalAlign=middle;whiteSpace=wrap;overflow=hidden;strokeWidth=3;" parent="1" vertex="1">
                        <mxGeometry x="620" y="260" width="80" height="20" as="geometry"/>
                    </mxCell>
                </UserObject>
                <UserObject label="&lt;font color=&quot;#ffffff&quot;&gt;Bread&lt;br&gt;&lt;/font&gt;" placeholders="1" name="Variable" id="82">
                    <mxCell style="text;html=1;strokeColor=none;fillColor=none;align=center;verticalAlign=middle;whiteSpace=wrap;overflow=hidden;strokeWidth=3;" parent="1" vertex="1">
                        <mxGeometry x="735" y="392.66999999999996" width="80" height="20" as="geometry"/>
                    </mxCell>
                </UserObject>
                <UserObject label="&lt;font color=&quot;#ffffff&quot;&gt;Bread&lt;br&gt;&lt;/font&gt;" placeholders="1" name="Variable" id="83">
                    <mxCell style="text;html=1;strokeColor=none;fillColor=none;align=center;verticalAlign=middle;whiteSpace=wrap;overflow=hidden;strokeWidth=3;" parent="1" vertex="1">
                        <mxGeometry x="735" y="345.46" width="80" height="20" as="geometry"/>
                    </mxCell>
                </UserObject>
                <UserObject label="&lt;font color=&quot;#ffffff&quot;&gt;Bread&lt;br&gt;&lt;/font&gt;" placeholders="1" name="Variable" id="84">
                    <mxCell style="text;html=1;strokeColor=none;fillColor=none;align=center;verticalAlign=middle;whiteSpace=wrap;overflow=hidden;strokeWidth=3;" parent="1" vertex="1">
                        <mxGeometry x="500" y="280" width="80" height="20" as="geometry"/>
                    </mxCell>
                </UserObject>
                <UserObject label="&lt;font color=&quot;#ffffff&quot;&gt;Tomatoes&lt;br&gt;&lt;/font&gt;" placeholders="1" name="Variable" id="85">
                    <mxCell style="text;html=1;strokeColor=none;fillColor=none;align=center;verticalAlign=middle;whiteSpace=wrap;overflow=hidden;strokeWidth=3;" parent="1" vertex="1">
                        <mxGeometry x="620" y="355.5799999999999" width="80" height="20" as="geometry"/>
                    </mxCell>
                </UserObject>
                <UserObject label="&lt;font color=&quot;#ffffff&quot;&gt;Tomatoes&lt;br&gt;&lt;/font&gt;" placeholders="1" name="Variable" id="86">
                    <mxCell style="text;html=1;strokeColor=none;fillColor=none;align=center;verticalAlign=middle;whiteSpace=wrap;overflow=hidden;strokeWidth=3;" parent="1" vertex="1">
                        <mxGeometry x="380" y="159.99999999999991" width="80" height="20" as="geometry"/>
                    </mxCell>
                </UserObject>
                <UserObject label="&lt;font color=&quot;#ffffff&quot;&gt;Ground&lt;br&gt;Beef&lt;br&gt;&lt;/font&gt;" placeholders="1" name="Variable" id="87">
                    <mxCell style="text;html=1;strokeColor=none;fillColor=none;align=center;verticalAlign=middle;whiteSpace=wrap;overflow=hidden;strokeWidth=3;" parent="1" vertex="1">
                        <mxGeometry x="620" y="305.58000000000004" width="80" height="34.42" as="geometry"/>
                    </mxCell>
                </UserObject>
                <UserObject label="&lt;font color=&quot;#ffffff&quot;&gt;Ground&lt;br&gt;Beef&lt;br&gt;&lt;/font&gt;" placeholders="1" name="Variable" id="88">
                    <mxCell style="text;html=1;strokeColor=none;fillColor=none;align=center;verticalAlign=middle;whiteSpace=wrap;overflow=hidden;strokeWidth=3;" parent="1" vertex="1">
                        <mxGeometry x="500" y="330" width="80" height="30" as="geometry"/>
                    </mxCell>
                </UserObject>
                <UserObject label="&lt;font color=&quot;#ffffff&quot;&gt;Ground&lt;br&gt;Beef&lt;br&gt;&lt;/font&gt;" placeholders="1" name="Variable" id="89">
                    <mxCell style="text;html=1;strokeColor=none;fillColor=none;align=center;verticalAlign=middle;whiteSpace=wrap;overflow=hidden;strokeWidth=3;" parent="1" vertex="1">
                        <mxGeometry x="260" y="430" width="80" height="30" as="geometry"/>
                    </mxCell>
                </UserObject>
                <UserObject label="&lt;font color=&quot;#ffffff&quot;&gt;Cheese&lt;br&gt;&lt;/font&gt;" placeholders="1" name="Variable" id="90">
                    <mxCell style="text;html=1;strokeColor=none;fillColor=none;align=center;verticalAlign=middle;whiteSpace=wrap;overflow=hidden;strokeWidth=3;" parent="1" vertex="1">
                        <mxGeometry x="620" y="209.99999999999994" width="80" height="20" as="geometry"/>
                    </mxCell>
                </UserObject>
                <UserObject label="&lt;font color=&quot;#ffffff&quot;&gt;Cheese&lt;br&gt;&lt;/font&gt;" placeholders="1" name="Variable" id="91">
                    <mxCell style="text;html=1;strokeColor=none;fillColor=none;align=center;verticalAlign=middle;whiteSpace=wrap;overflow=hidden;strokeWidth=3;" parent="1" vertex="1">
                        <mxGeometry x="20" y="265.5799999999999" width="80" height="20" as="geometry"/>
                    </mxCell>
                </UserObject>
                <UserObject label="&lt;font color=&quot;#ffffff&quot;&gt;Pasta&lt;br&gt;&lt;/font&gt;" placeholders="1" name="Variable" id="92">
                    <mxCell style="text;html=1;strokeColor=none;fillColor=none;align=center;verticalAlign=middle;whiteSpace=wrap;overflow=hidden;strokeWidth=3;" parent="1" vertex="1">
                        <mxGeometry x="620" y="159.99999999999994" width="80" height="20" as="geometry"/>
                    </mxCell>
                </UserObject>
                <UserObject label="&lt;font color=&quot;#ffffff&quot;&gt;Pasta&lt;br&gt;&lt;/font&gt;" placeholders="1" name="Variable" id="93">
                    <mxCell style="text;html=1;strokeColor=none;fillColor=none;align=center;verticalAlign=middle;whiteSpace=wrap;overflow=hidden;strokeWidth=3;" parent="1" vertex="1">
                        <mxGeometry x="735" y="244.87999999999997" width="80" height="20" as="geometry"/>
                    </mxCell>
                </UserObject>
                <UserObject label="&lt;font color=&quot;#ffffff&quot;&gt;Pasta&lt;br&gt;Sauce&lt;br&gt;&lt;/font&gt;" placeholders="1" name="Variable" id="94">
                    <mxCell style="text;html=1;strokeColor=none;fillColor=none;align=center;verticalAlign=middle;whiteSpace=wrap;overflow=hidden;strokeWidth=3;" parent="1" vertex="1">
                        <mxGeometry x="500" y="232.79" width="80" height="37.21" as="geometry"/>
                    </mxCell>
                </UserObject>
                <UserObject label="&lt;font color=&quot;#ffffff&quot;&gt;Pasta&lt;br&gt;Sauce&lt;br&gt;&lt;/font&gt;" placeholders="1" name="Variable" id="95">
                    <mxCell style="text;html=1;strokeColor=none;fillColor=none;align=center;verticalAlign=middle;whiteSpace=wrap;overflow=hidden;strokeWidth=3;" parent="1" vertex="1">
                        <mxGeometry x="380" y="355.58000000000004" width="80" height="34.42" as="geometry"/>
                    </mxCell>
                </UserObject>
                <UserObject label="&lt;font color=&quot;#ffffff&quot;&gt;Cake&lt;br&gt;&lt;/font&gt;" placeholders="1" name="Variable" id="96">
                    <mxCell style="text;html=1;strokeColor=none;fillColor=none;align=center;verticalAlign=middle;whiteSpace=wrap;overflow=hidden;strokeWidth=3;" parent="1" vertex="1">
                        <mxGeometry x="260" y="279.99999999999994" width="80" height="20" as="geometry"/>
                    </mxCell>
                </UserObject>
                <UserObject label="&lt;font color=&quot;#ffffff&quot;&gt;Cake&lt;br&gt;&lt;/font&gt;" placeholders="1" name="Variable" id="97">
                    <mxCell style="text;html=1;strokeColor=none;fillColor=none;align=center;verticalAlign=middle;whiteSpace=wrap;overflow=hidden;strokeWidth=3;" parent="1" vertex="1">
                        <mxGeometry x="260" y="329.99999999999994" width="80" height="20" as="geometry"/>
                    </mxCell>
                </UserObject>
                <UserObject label="&lt;font color=&quot;#ffffff&quot;&gt;Hot&lt;br&gt;Dogs&lt;br&gt;&lt;/font&gt;" placeholders="1" name="Variable" id="98">
                    <mxCell style="text;html=1;strokeColor=none;fillColor=none;align=center;verticalAlign=middle;whiteSpace=wrap;overflow=hidden;strokeWidth=3;" parent="1" vertex="1">
                        <mxGeometry x="735" y="437.38" width="80" height="35" as="geometry"/>
                    </mxCell>
                </UserObject>
                <UserObject label="&lt;font color=&quot;#ffffff&quot;&gt;Hot&lt;br&gt;Dogs&lt;br&gt;&lt;/font&gt;" placeholders="1" name="Variable" id="99">
                    <mxCell style="text;html=1;strokeColor=none;fillColor=none;align=center;verticalAlign=middle;whiteSpace=wrap;overflow=hidden;strokeWidth=3;" parent="1" vertex="1">
                        <mxGeometry x="735" y="287.09000000000003" width="80" height="30" as="geometry"/>
                    </mxCell>
                </UserObject>
                <UserObject label="&lt;font color=&quot;#ffffff&quot;&gt;Hot Dog&lt;br&gt;Buns&lt;br&gt;&lt;/font&gt;" placeholders="1" name="Variable" id="100">
                    <mxCell style="text;html=1;strokeColor=none;fillColor=none;align=center;verticalAlign=middle;whiteSpace=wrap;overflow=hidden;strokeWidth=3;" parent="1" vertex="1">
                        <mxGeometry x="500" y="430" width="80" height="30" as="geometry"/>
                    </mxCell>
                </UserObject>
                <UserObject label="&lt;font color=&quot;#ffffff&quot;&gt;Hot Dog&lt;br&gt;Buns&lt;br&gt;&lt;/font&gt;" placeholders="1" name="Variable" id="101">
                    <mxCell style="text;html=1;strokeColor=none;fillColor=none;align=center;verticalAlign=middle;whiteSpace=wrap;overflow=hidden;strokeWidth=3;" parent="1" vertex="1">
                        <mxGeometry x="20" y="317.21" width="80" height="30" as="geometry"/>
                    </mxCell>
                </UserObject>
                <UserObject label="&lt;font color=&quot;#ffffff&quot;&gt;Potatoes&lt;br&gt;&lt;/font&gt;" placeholders="1" name="Variable" id="102">
                    <mxCell style="text;html=1;strokeColor=none;fillColor=none;align=center;verticalAlign=middle;whiteSpace=wrap;overflow=hidden;strokeWidth=3;" parent="1" vertex="1">
                        <mxGeometry x="380" y="305.58000000000004" width="80" height="20" as="geometry"/>
                    </mxCell>
                </UserObject>
                <UserObject label="&lt;font color=&quot;#ffffff&quot;&gt;Potatoes&lt;br&gt;&lt;/font&gt;" placeholders="1" name="Variable" id="104">
                    <mxCell style="text;html=1;strokeColor=none;fillColor=none;align=center;verticalAlign=middle;whiteSpace=wrap;overflow=hidden;strokeWidth=3;" parent="1" vertex="1">
                        <mxGeometry x="20" y="422.79" width="80" height="20" as="geometry"/>
                    </mxCell>
                </UserObject>
                <UserObject label="&lt;font color=&quot;#ffffff&quot;&gt;Milk&lt;br&gt;&lt;/font&gt;" placeholders="1" name="Variable" id="105">
                    <mxCell style="text;html=1;strokeColor=none;fillColor=none;align=center;verticalAlign=middle;whiteSpace=wrap;overflow=hidden;strokeWidth=3;" parent="1" vertex="1">
                        <mxGeometry x="380" y="257.21000000000004" width="80" height="20" as="geometry"/>
                    </mxCell>
                </UserObject>
                <UserObject label="&lt;font color=&quot;#ffffff&quot;&gt;Milk&lt;br&gt;&lt;/font&gt;" placeholders="1" name="Variable" id="106">
                    <mxCell style="text;html=1;strokeColor=none;fillColor=none;align=center;verticalAlign=middle;whiteSpace=wrap;overflow=hidden;strokeWidth=3;" parent="1" vertex="1">
                        <mxGeometry x="140" y="160" width="80" height="20" as="geometry"/>
                    </mxCell>
                </UserObject>
                <UserObject label="&lt;font color=&quot;#ffffff&quot;&gt;Butter&lt;br&gt;&lt;/font&gt;" placeholders="1" name="Variable" id="107">
                    <mxCell style="text;html=1;strokeColor=none;fillColor=none;align=center;verticalAlign=middle;whiteSpace=wrap;overflow=hidden;strokeWidth=3;" parent="1" vertex="1">
                        <mxGeometry x="260" y="380" width="80" height="20" as="geometry"/>
                    </mxCell>
                </UserObject>
                <UserObject label="&lt;font color=&quot;#ffffff&quot;&gt;Butter&lt;br&gt;&lt;/font&gt;" placeholders="1" name="Variable" id="108">
                    <mxCell style="text;html=1;strokeColor=none;fillColor=none;align=center;verticalAlign=middle;whiteSpace=wrap;overflow=hidden;strokeWidth=3;" parent="1" vertex="1">
                        <mxGeometry x="500" y="380" width="80" height="20" as="geometry"/>
                    </mxCell>
                </UserObject>
                <UserObject label="&lt;font color=&quot;#ffffff&quot;&gt;Coffee&lt;br&gt;&lt;/font&gt;" placeholders="1" name="Variable" id="109">
                    <mxCell style="text;html=1;strokeColor=none;fillColor=none;align=center;verticalAlign=middle;whiteSpace=wrap;overflow=hidden;strokeWidth=3;" parent="1" vertex="1">
                        <mxGeometry x="20" y="370" width="80" height="20" as="geometry"/>
                    </mxCell>
                </UserObject>
                <UserObject label="&lt;font color=&quot;#ffffff&quot;&gt;Coffee&lt;br&gt;&lt;/font&gt;" placeholders="1" name="Variable" id="110">
                    <mxCell style="text;html=1;strokeColor=none;fillColor=none;align=center;verticalAlign=middle;whiteSpace=wrap;overflow=hidden;strokeWidth=3;" parent="1" vertex="1">
                        <mxGeometry x="140" y="355.58" width="80" height="20" as="geometry"/>
                    </mxCell>
                </UserObject>
                <UserObject label="&lt;font color=&quot;#ffffff&quot;&gt;Creamer&lt;br&gt;&lt;/font&gt;" placeholders="1" name="Variable" id="111">
                    <mxCell style="text;html=1;strokeColor=none;fillColor=none;align=center;verticalAlign=middle;whiteSpace=wrap;overflow=hidden;strokeWidth=3;" parent="1" vertex="1">
                        <mxGeometry x="140" y="255.58" width="80" height="20" as="geometry"/>
                    </mxCell>
                </UserObject>
                <UserObject label="&lt;font color=&quot;#ffffff&quot;&gt;Creamer&lt;br&gt;&lt;/font&gt;" placeholders="1" name="Variable" id="112">
                    <mxCell style="text;html=1;strokeColor=none;fillColor=none;align=center;verticalAlign=middle;whiteSpace=wrap;overflow=hidden;strokeWidth=3;" parent="1" vertex="1">
                        <mxGeometry x="140" y="206.39000000000001" width="80" height="20" as="geometry"/>
                    </mxCell>
                </UserObject>
                <UserObject label="&lt;font color=&quot;#ffffff&quot;&gt;Salad&lt;br&gt;Dressing&lt;br&gt;&lt;/font&gt;" placeholders="1" name="Variable" id="113">
                    <mxCell style="text;html=1;strokeColor=none;fillColor=none;align=center;verticalAlign=middle;whiteSpace=wrap;overflow=hidden;strokeWidth=3;" parent="1" vertex="1">
                        <mxGeometry x="380" y="206.39" width="80" height="33.61" as="geometry"/>
                    </mxCell>
                </UserObject>
                <mxCell id="121" value="Hamburgers" style="shape=table;startSize=30;container=1;collapsible=0;childLayout=tableLayout;fixedRows=1;rowLines=0;fontStyle=1;strokeWidth=3;fontSize=15;fontColor=#FFFFFF;opacity=50;" parent="1" vertex="1">
                    <mxGeometry x="40" y="520" width="180" height="120" as="geometry"/>
                </mxCell>
                <mxCell id="122" value="" style="shape=tableRow;horizontal=0;startSize=0;swimlaneHead=0;swimlaneBody=0;top=0;left=0;bottom=0;right=0;collapsible=0;dropTarget=0;fillColor=none;points=[[0,0.5],[1,0.5]];portConstraint=eastwest;strokeWidth=3;fontSize=15;fontColor=#FFFFFF;opacity=50;" parent="121" vertex="1">
                    <mxGeometry y="30" width="180" height="30" as="geometry"/>
                </mxCell>
                <mxCell id="123" value="0/1" style="shape=partialRectangle;html=1;whiteSpace=wrap;connectable=0;fillColor=none;top=0;left=0;bottom=0;right=0;overflow=hidden;pointerEvents=1;strokeWidth=3;fontSize=15;fontColor=#FFFFFF;opacity=50;" parent="122" vertex="1">
                    <mxGeometry width="40" height="30" as="geometry">
                        <mxRectangle width="40" height="30" as="alternateBounds"/>
                    </mxGeometry>
                </mxCell>
                <mxCell id="124" value="Ground Beef" style="shape=partialRectangle;html=1;whiteSpace=wrap;connectable=0;fillColor=none;top=0;left=0;bottom=0;right=0;align=left;spacingLeft=6;overflow=hidden;strokeWidth=3;fontSize=15;fontColor=#FFFFFF;opacity=50;" parent="122" vertex="1">
                    <mxGeometry x="40" width="140" height="30" as="geometry">
                        <mxRectangle width="140" height="30" as="alternateBounds"/>
                    </mxGeometry>
                </mxCell>
                <mxCell id="125" value="" style="shape=tableRow;horizontal=0;startSize=0;swimlaneHead=0;swimlaneBody=0;top=0;left=0;bottom=0;right=0;collapsible=0;dropTarget=0;fillColor=none;points=[[0,0.5],[1,0.5]];portConstraint=eastwest;strokeWidth=3;fontSize=15;fontColor=#FFFFFF;opacity=50;" parent="121" vertex="1">
                    <mxGeometry y="60" width="180" height="30" as="geometry"/>
                </mxCell>
                <mxCell id="126" value="0/1" style="shape=partialRectangle;html=1;whiteSpace=wrap;connectable=0;fillColor=none;top=0;left=0;bottom=0;right=0;overflow=hidden;strokeWidth=3;fontSize=15;fontColor=#FFFFFF;opacity=50;" parent="125" vertex="1">
                    <mxGeometry width="40" height="30" as="geometry">
                        <mxRectangle width="40" height="30" as="alternateBounds"/>
                    </mxGeometry>
                </mxCell>
                <mxCell id="127" value="Cheese" style="shape=partialRectangle;html=1;whiteSpace=wrap;connectable=0;fillColor=none;top=0;left=0;bottom=0;right=0;align=left;spacingLeft=6;overflow=hidden;strokeWidth=3;fontSize=15;fontColor=#FFFFFF;opacity=50;" parent="125" vertex="1">
                    <mxGeometry x="40" width="140" height="30" as="geometry">
                        <mxRectangle width="140" height="30" as="alternateBounds"/>
                    </mxGeometry>
                </mxCell>
                <mxCell id="128" value="" style="shape=tableRow;horizontal=0;startSize=0;swimlaneHead=0;swimlaneBody=0;top=0;left=0;bottom=0;right=0;collapsible=0;dropTarget=0;fillColor=none;points=[[0,0.5],[1,0.5]];portConstraint=eastwest;strokeWidth=3;fontSize=15;fontColor=#FFFFFF;opacity=50;" parent="121" vertex="1">
                    <mxGeometry y="90" width="180" height="30" as="geometry"/>
                </mxCell>
                <mxCell id="129" value="0/1" style="shape=partialRectangle;html=1;whiteSpace=wrap;connectable=0;fillColor=none;top=0;left=0;bottom=0;right=0;overflow=hidden;strokeWidth=3;fontSize=15;fontColor=#FFFFFF;opacity=50;" parent="128" vertex="1">
                    <mxGeometry width="40" height="30" as="geometry">
                        <mxRectangle width="40" height="30" as="alternateBounds"/>
                    </mxGeometry>
                </mxCell>
                <mxCell id="130" value="Bread" style="shape=partialRectangle;html=1;whiteSpace=wrap;connectable=0;fillColor=none;top=0;left=0;bottom=0;right=0;align=left;spacingLeft=6;overflow=hidden;strokeWidth=3;fontSize=15;fontColor=#FFFFFF;opacity=50;" parent="128" vertex="1">
                    <mxGeometry x="40" width="140" height="30" as="geometry">
                        <mxRectangle width="140" height="30" as="alternateBounds"/>
                    </mxGeometry>
                </mxCell>
                <mxCell id="131" value="Salad" style="shape=table;startSize=30;container=1;collapsible=0;childLayout=tableLayout;fixedRows=1;rowLines=0;fontStyle=1;strokeWidth=3;fontSize=15;fontColor=#FFFFFF;opacity=50;" parent="1" vertex="1">
                    <mxGeometry x="330" y="520" width="180" height="120" as="geometry"/>
                </mxCell>
                <mxCell id="132" value="" style="shape=tableRow;horizontal=0;startSize=0;swimlaneHead=0;swimlaneBody=0;top=0;left=0;bottom=0;right=0;collapsible=0;dropTarget=0;fillColor=none;points=[[0,0.5],[1,0.5]];portConstraint=eastwest;strokeWidth=3;fontSize=15;fontColor=#FFFFFF;opacity=50;" parent="131" vertex="1">
                    <mxGeometry y="30" width="180" height="30" as="geometry"/>
                </mxCell>
                <mxCell id="133" value="0/2" style="shape=partialRectangle;html=1;whiteSpace=wrap;connectable=0;fillColor=none;top=0;left=0;bottom=0;right=0;overflow=hidden;pointerEvents=1;strokeWidth=3;fontSize=15;fontColor=#FFFFFF;opacity=50;" parent="132" vertex="1">
                    <mxGeometry width="40" height="30" as="geometry">
                        <mxRectangle width="40" height="30" as="alternateBounds"/>
                    </mxGeometry>
                </mxCell>
                <mxCell id="134" value="Lettuce" style="shape=partialRectangle;html=1;whiteSpace=wrap;connectable=0;fillColor=none;top=0;left=0;bottom=0;right=0;align=left;spacingLeft=6;overflow=hidden;strokeWidth=3;fontSize=15;fontColor=#FFFFFF;opacity=50;" parent="132" vertex="1">
                    <mxGeometry x="40" width="140" height="30" as="geometry">
                        <mxRectangle width="140" height="30" as="alternateBounds"/>
                    </mxGeometry>
                </mxCell>
                <mxCell id="135" value="" style="shape=tableRow;horizontal=0;startSize=0;swimlaneHead=0;swimlaneBody=0;top=0;left=0;bottom=0;right=0;collapsible=0;dropTarget=0;fillColor=none;points=[[0,0.5],[1,0.5]];portConstraint=eastwest;strokeWidth=3;fontSize=15;fontColor=#FFFFFF;opacity=50;" parent="131" vertex="1">
                    <mxGeometry y="60" width="180" height="30" as="geometry"/>
                </mxCell>
                <mxCell id="136" value="0/2" style="shape=partialRectangle;html=1;whiteSpace=wrap;connectable=0;fillColor=none;top=0;left=0;bottom=0;right=0;overflow=hidden;strokeWidth=3;fontSize=15;fontColor=#FFFFFF;opacity=50;" parent="135" vertex="1">
                    <mxGeometry width="40" height="30" as="geometry">
                        <mxRectangle width="40" height="30" as="alternateBounds"/>
                    </mxGeometry>
                </mxCell>
                <mxCell id="137" value="Tomatoes" style="shape=partialRectangle;html=1;whiteSpace=wrap;connectable=0;fillColor=none;top=0;left=0;bottom=0;right=0;align=left;spacingLeft=6;overflow=hidden;strokeWidth=3;fontSize=15;fontColor=#FFFFFF;opacity=50;" parent="135" vertex="1">
                    <mxGeometry x="40" width="140" height="30" as="geometry">
                        <mxRectangle width="140" height="30" as="alternateBounds"/>
                    </mxGeometry>
                </mxCell>
                <mxCell id="138" value="" style="shape=tableRow;horizontal=0;startSize=0;swimlaneHead=0;swimlaneBody=0;top=0;left=0;bottom=0;right=0;collapsible=0;dropTarget=0;fillColor=none;points=[[0,0.5],[1,0.5]];portConstraint=eastwest;strokeWidth=3;fontSize=15;fontColor=#FFFFFF;opacity=50;" parent="131" vertex="1">
                    <mxGeometry y="90" width="180" height="30" as="geometry"/>
                </mxCell>
                <mxCell id="139" value="0/1" style="shape=partialRectangle;html=1;whiteSpace=wrap;connectable=0;fillColor=none;top=0;left=0;bottom=0;right=0;overflow=hidden;strokeWidth=3;fontSize=15;fontColor=#FFFFFF;opacity=50;" parent="138" vertex="1">
                    <mxGeometry width="40" height="30" as="geometry">
                        <mxRectangle width="40" height="30" as="alternateBounds"/>
                    </mxGeometry>
                </mxCell>
                <mxCell id="140" value="Salad Dressing" style="shape=partialRectangle;html=1;whiteSpace=wrap;connectable=0;fillColor=none;top=0;left=0;bottom=0;right=0;align=left;spacingLeft=6;overflow=hidden;strokeWidth=3;fontSize=15;fontColor=#FFFFFF;opacity=50;" parent="138" vertex="1">
                    <mxGeometry x="40" width="140" height="30" as="geometry">
                        <mxRectangle width="140" height="30" as="alternateBounds"/>
                    </mxGeometry>
                </mxCell>
                <mxCell id="141" value="Mashed Potatoes" style="shape=table;startSize=30;container=1;collapsible=0;childLayout=tableLayout;fixedRows=1;rowLines=0;fontStyle=1;strokeWidth=3;fontSize=15;fontColor=#FFFFFF;opacity=50;" parent="1" vertex="1">
                    <mxGeometry x="620" y="520" width="180" height="120" as="geometry"/>
                </mxCell>
                <mxCell id="142" value="" style="shape=tableRow;horizontal=0;startSize=0;swimlaneHead=0;swimlaneBody=0;top=0;left=0;bottom=0;right=0;collapsible=0;dropTarget=0;fillColor=none;points=[[0,0.5],[1,0.5]];portConstraint=eastwest;strokeWidth=3;fontSize=15;fontColor=#FFFFFF;opacity=50;" parent="141" vertex="1">
                    <mxGeometry y="30" width="180" height="30" as="geometry"/>
                </mxCell>
                <mxCell id="143" value="0/1" style="shape=partialRectangle;html=1;whiteSpace=wrap;connectable=0;fillColor=none;top=0;left=0;bottom=0;right=0;overflow=hidden;pointerEvents=1;strokeWidth=3;fontSize=15;fontColor=#FFFFFF;opacity=50;" parent="142" vertex="1">
                    <mxGeometry width="40" height="30" as="geometry">
                        <mxRectangle width="40" height="30" as="alternateBounds"/>
                    </mxGeometry>
                </mxCell>
                <mxCell id="144" value="Potatoes" style="shape=partialRectangle;html=1;whiteSpace=wrap;connectable=0;fillColor=none;top=0;left=0;bottom=0;right=0;align=left;spacingLeft=6;overflow=hidden;strokeWidth=3;fontSize=15;fontColor=#FFFFFF;opacity=50;" parent="142" vertex="1">
                    <mxGeometry x="40" width="140" height="30" as="geometry">
                        <mxRectangle width="140" height="30" as="alternateBounds"/>
                    </mxGeometry>
                </mxCell>
                <mxCell id="145" value="" style="shape=tableRow;horizontal=0;startSize=0;swimlaneHead=0;swimlaneBody=0;top=0;left=0;bottom=0;right=0;collapsible=0;dropTarget=0;fillColor=none;points=[[0,0.5],[1,0.5]];portConstraint=eastwest;strokeWidth=3;fontSize=15;fontColor=#FFFFFF;opacity=50;" parent="141" vertex="1">
                    <mxGeometry y="60" width="180" height="30" as="geometry"/>
                </mxCell>
                <mxCell id="146" value="0/1" style="shape=partialRectangle;html=1;whiteSpace=wrap;connectable=0;fillColor=none;top=0;left=0;bottom=0;right=0;overflow=hidden;strokeWidth=3;fontSize=15;fontColor=#FFFFFF;opacity=50;" parent="145" vertex="1">
                    <mxGeometry width="40" height="30" as="geometry">
                        <mxRectangle width="40" height="30" as="alternateBounds"/>
                    </mxGeometry>
                </mxCell>
                <mxCell id="147" value="Milk" style="shape=partialRectangle;html=1;whiteSpace=wrap;connectable=0;fillColor=none;top=0;left=0;bottom=0;right=0;align=left;spacingLeft=6;overflow=hidden;strokeWidth=3;fontSize=15;fontColor=#FFFFFF;opacity=50;" parent="145" vertex="1">
                    <mxGeometry x="40" width="140" height="30" as="geometry">
                        <mxRectangle width="140" height="30" as="alternateBounds"/>
                    </mxGeometry>
                </mxCell>
                <mxCell id="148" value="" style="shape=tableRow;horizontal=0;startSize=0;swimlaneHead=0;swimlaneBody=0;top=0;left=0;bottom=0;right=0;collapsible=0;dropTarget=0;fillColor=none;points=[[0,0.5],[1,0.5]];portConstraint=eastwest;strokeWidth=3;fontSize=15;fontColor=#FFFFFF;opacity=50;" parent="141" vertex="1">
                    <mxGeometry y="90" width="180" height="30" as="geometry"/>
                </mxCell>
                <mxCell id="149" value="0/1" style="shape=partialRectangle;html=1;whiteSpace=wrap;connectable=0;fillColor=none;top=0;left=0;bottom=0;right=0;overflow=hidden;strokeWidth=3;fontSize=15;fontColor=#FFFFFF;opacity=50;" parent="148" vertex="1">
                    <mxGeometry width="40" height="30" as="geometry">
                        <mxRectangle width="40" height="30" as="alternateBounds"/>
                    </mxGeometry>
                </mxCell>
                <mxCell id="150" value="Butter" style="shape=partialRectangle;html=1;whiteSpace=wrap;connectable=0;fillColor=none;top=0;left=0;bottom=0;right=0;align=left;spacingLeft=6;overflow=hidden;strokeWidth=3;fontSize=15;fontColor=#FFFFFF;opacity=50;" parent="148" vertex="1">
                    <mxGeometry x="40" width="140" height="30" as="geometry">
                        <mxRectangle width="140" height="30" as="alternateBounds"/>
                    </mxGeometry>
                </mxCell>
                <mxCell id="151" value="Help Sam buy groceries for dinner before the store closes!&amp;nbsp;" style="text;strokeColor=none;fillColor=none;html=1;fontSize=24;fontStyle=1;verticalAlign=middle;align=center;strokeWidth=3;fontColor=#FFFFFF;opacity=50;" parent="1" vertex="1">
                    <mxGeometry x="140" y="60" width="560" height="40" as="geometry"/>
                </mxCell>
                <mxCell id="153" value="" style="rounded=0;whiteSpace=wrap;html=1;strokeWidth=3;fontSize=15;fontColor=#ffffff;opacity=50;fillColor=#60a917;strokeColor=#2D7600;" parent="1" vertex="1">
                    <mxGeometry x="365" y="100" width="110" height="30" as="geometry"/>
                </mxCell>
                <mxCell id="155" value="&lt;font style=&quot;font-size: 25px;&quot;&gt;1:00&lt;/font&gt;" style="text;html=1;strokeColor=none;fillColor=none;align=center;verticalAlign=middle;whiteSpace=wrap;rounded=0;strokeWidth=5;fontSize=15;fontColor=#FFFFFF;opacity=50;fontStyle=1" parent="1" vertex="1">
                    <mxGeometry x="390" y="100" width="60" height="30" as="geometry"/>
                </mxCell>
                <mxCell id="156" value="&lt;font style=&quot;font-size: 12px;&quot;&gt;LEVEL 1/100&lt;/font&gt;" style="text;html=1;strokeColor=none;fillColor=none;align=center;verticalAlign=middle;whiteSpace=wrap;rounded=0;fontSize=12;" parent="1" vertex="1">
                    <mxGeometry x="50" y="100" width="90" height="30" as="geometry"/>
                </mxCell>
                <mxCell id="161" value="" style="html=1;whiteSpace=wrap;shape=isoCube2;backgroundOutline=1;isoAngle=15;rotation=-135;opacity=50;" vertex="1" parent="1">
                    <mxGeometry x="758.75" y="158.04999999999998" width="32.5" height="35.58" as="geometry"/>
                </mxCell>
                <mxCell id="162" value="" style="html=1;whiteSpace=wrap;shape=isoCube2;backgroundOutline=1;isoAngle=15;rotation=-135;opacity=50;" vertex="1" parent="1">
                    <mxGeometry x="758.75" y="208.04999999999998" width="32.5" height="35.58" as="geometry"/>
                </mxCell>
                <UserObject label="&lt;font color=&quot;#ffffff&quot;&gt;Cake&lt;br&gt;&lt;/font&gt;" placeholders="1" name="Variable" id="163">
                    <mxCell style="text;html=1;strokeColor=none;fillColor=none;align=center;verticalAlign=middle;whiteSpace=wrap;overflow=hidden;strokeWidth=3;" vertex="1" parent="1">
                        <mxGeometry x="735" y="147.20999999999995" width="80" height="20" as="geometry"/>
                    </mxCell>
                </UserObject>
                <UserObject label="&lt;font color=&quot;#ffffff&quot;&gt;Butter&lt;br&gt;&lt;/font&gt;" placeholders="1" name="Variable" id="164">
                    <mxCell style="text;html=1;strokeColor=none;fillColor=none;align=center;verticalAlign=middle;whiteSpace=wrap;overflow=hidden;strokeWidth=3;" vertex="1" parent="1">
                        <mxGeometry x="735" y="200" width="80" height="20" as="geometry"/>
                    </mxCell>
                </UserObject>
            </root>
        </mxGraphModel>
    </diagram>
</mxfile>